# xmcd
#
# Track frame offsets: 
#        150
#        12262
#        27643
#        45315
#        58187
#        67930
#        83342
#        95738
#        108280
#        125186
#        140396
#        156205
#        175414
#        190251
#        207606
#
# Disc length: 2916 seconds
#
# Revision: 1
# Processed by: cddbd v1.5.2PL0 Copyright (c) Steve Scherf et al.
# Submitted via: ExactAudioCopyFreeDBPlugin 1.0
#
DISCID=d20b620f
DTITLE=Mark Merritt - Best of Mark Merritt - Ballads (and other would-
DTITLE=be hits)
DYEAR=2007
DGENRE=Country
TTITLE0=The Farmer's Daughter
TTITLE1=That'd Be You
TTITLE2=The Day They Met
TTITLE3=Things'll Never Be The Same
TTITLE4=Somebody, Someday
TTITLE5=Home
TTITLE6=Nothing But The Radio On
TTITLE7=Small Town
TTITLE8=Love Enough for All
TTITLE9=Reasons
TTITLE10=Better Left Unsaid
TTITLE11=I Never Was Much for Sailing
TTITLE12=For Everything You Do
TTITLE13=Cobblestone Street
TTITLE14=Annie's Song
EXTD=
EXTT0=
EXTT1=
EXTT2=
EXTT3=
EXTT4=
EXTT5=
EXTT6=
EXTT7=
EXTT8=
EXTT9=
EXTT10=
EXTT11=
EXTT12=
EXTT13=
EXTT14=
PLAYORDER=
